<?xml version="1.0" encoding="UTF-8"?>
<svg xmlns="http://www.w3.org/2000/svg" width="18" height="18" viewBox="0 0 16 16">
    <path fill="#FFF" d="M13.12 4.96v9.12H2.88V1.92h7.296l2.944 3.04z"/>
    <path fill="#FFF" d="M13.12 4.96v9.12H2.88V1.92h7.296l2.944 3.04z"/>

    <linearGradient id="a" gradientUnits="userSpaceOnUse" x1="9245.242" y1="-13232.848" x2="9353.533" y2="-13341.139"
                    gradientTransform="matrix(.032 0 0 -.032 -289.596 -412.384)">
        <stop offset="0" stop-color="#ccc"/>
        <stop offset="1" stop-color="#b3b3b3"/>
    </linearGradient>

    <ellipse fill="url(#a)" cx="7.984" cy="12.8" rx="3.44" ry=".416"/>
    <path fill="#FFF" d="M4.697 12.68l-.043-1.014.388-1.615s1.164-.561 1.681.15.345 1.486.345 1.486l-2.371.993z"/>

    <linearGradient id="b" gradientUnits="userSpaceOnUse" x1="9242.963" y1="-13112.857" x2="9327.49" y2="-13197.385"
                    gradientTransform="matrix(.032 0 0 -.032 -289.596 -412.384)">
        <stop offset="0" stop-color="#c9473d"/>
        <stop offset="1" stop-color="#9e3939"/>
    </linearGradient>

    <path fill="url(#b)"
          d="M11.306 5.096s.065-.2-.563-.657c-.628-.457-.9-.414-.9-.414-.339-.026-.478-.01-.661.204l-4.291 5.893a.274.274 0 0 0-.044.089h-.011s-.427 2.683-.338 2.746c.08.057 2.037-.938 2.45-1.131a.25.25 0 0 0 .068-.033h.001a.308.308 0 0 0 .073-.071l4.217-5.792c.258-.366-.001-.834-.001-.834zm-5.583 7.142s-.243-.565-.688-.465l-.238.322.354-1.922c.35.023.621.108.785.175.231.099.514.257.66.485.34.531.421.809.421.809l-1.294.596z"/>
    <path fill="#FFF" d="M9.984 2.08l.256 3.2 2.88-.32-3.136-2.88z"/>

    <linearGradient id="c" gradientUnits="userSpaceOnUse" x1="9086.826" y1="-12975.065" x2="9461.826" y2="-13350.065"
                    gradientTransform="matrix(.032 0 0 -.032 -289.596 -412.384)">
        <stop offset="0" stop-color="#ccc"/>
        <stop offset="1" stop-color="#b3b3b3"/>
    </linearGradient>

    <path fill="url(#c)"
          d="M10.323 1.595L2.4 1.6v12.8h11.2V4.896l-3.277-3.301zm2.387 3.301h-2.374l-.01-2.391 2.384 2.391zm.25 8.864H3.04V2.24H9.6v3.424h3.36v8.096z"/>

    <path fill="url(#d)"
          d="M6.309 10.305l.365-.525a.455.455 0 0 0-.113-.63l-.418-.289a.45.45 0 0 0-.629.113l-.639.92A6.207 6.207 0 0 0 4 9.828c-2.209 0-4 1.146-4 2.563 0 .863.671 1.623 1.691 2.088l-.363.522a.45.45 0 0 0 .113.628l.417.291c.078.055.167.08.257.08a.448.448 0 0 0 .371-.193l.639-.918c.283.039.574.064.875.064 2.209 0 4-1.146 4-2.563 0-.863-.671-1.62-1.691-2.085zM.85 12.391c0-.623.771-1.298 1.971-1.576a1.987 1.987 0 0 0-.479 2.726l-.161.23c-.827-.333-1.331-.875-1.331-1.38zm4.427 1.558c.439-.367.723-.911.723-1.527 0-.428-.137-.82-.365-1.146l.185-.266c.829.336 1.331.876 1.331 1.381-.001.606-.728 1.265-1.874 1.558z"/>

    <linearGradient id="b" gradientUnits="userSpaceOnUse" x1="16209.84" y1="23103.961" x2="16328.343" y2="23222.465"
                   gradientTransform="matrix(.036 0 0 .036 -578.212 -824.884)">
          <stop offset="0" stop-color="#507ea5"/>
          <stop offset="1" stop-color="#335f7f"/>
    </linearGradient>

    <path fill="url(#b)"
           d="M8.077 5.551v1.706c0 .049-.273.087-.607.087H5.107a.609.609 0 0 0-.607.607v2.081c0 .335.273.606.607.606H7.47c.334 0 .607.034.607.077v1.737c0 .05.197-.101.437-.333l2.806-2.707a.584.584 0 0 0 .02-.824l-.02-.02-2.806-2.704c-.24-.233-.437-.373-.437-.313z"/>
</svg>